{
  "source": "C:\\Users\\Peter\\Desktop\\stuff\\MIUN\\quantitative_research\\video_compression\\videos\\BVI-HD\\BVI-HD_CDVL_videos\\ORIG\\Fountain_1920x1080_50fps.mp4",
  "output": "C:\\Users\\Peter\\Desktop\\stuff\\MIUN\\quantitative_research\\video_compression\\compressed_videos\\BVI-HD\\h264\\2.5\\Fountain_1920x1080_50fps_h264.mp4",
  "codec": "h264",
  "ok": "Input #0, mov,mp4,m4a,3gp,3g2,mj2, from 'C:\\Users\\Peter\\Desktop\\stuff\\MIUN\\quantitative_research\\video_compression\\videos\\BVI-HD\\BVI-HD_CDVL_videos\\ORIG\\Fountain_1920x1080_50fps.mp4':\n  Metadata:\n    major_brand     : isom\n    minor_version   : 512\n    compatible_brands: isomiso2avc1mp41\n    encoder         : Lavf54.28.101\n  Duration: 00:00:05.00, start: 0.000000, bitrate: 603457 kb/s\n  Stream #0:0[0x1](und): Video: h264 (High 4:4:4 Predictive) (avc1 / 0x31637661), yuv420p(progressive), 1920x1080, 603453 kb/s, 50 fps, 50 tbr, 50 tbn (default)\n    Metadata:\n      handler_name    : VideoHandler\n      vendor_id       : [0][0][0][0]\n[out#0/mp4 @ 000001c181927980] Codec AVOption b:a (set bitrate (in bits/s)) has not been used for any stream. The most likely reason is either wrong type (e.g. a video option with no video streams) or that it is a private option of some decoder which was not actually used for any stream.\nStream mapping:\n  Stream #0:0 -> #0:0 (h264 (native) -> h264 (libx264))\nPress [q] to stop, [?] for help\n[libx264 @ 000001c182410840] using cpu capabilities: MMX2 SSE2Fast SSSE3 SSE4.2 AVX FMA3 BMI2 AVX2\n[libx264 @ 000001c182410840] profile High, level 5.0, 4:2:0, 8-bit\n[libx264 @ 000001c182410840] 264 - core 165 r3222 b35605a - H.264/MPEG-4 AVC codec - Copyleft 2003-2025 - http://www.videolan.org/x264.html - options: cabac=1 ref=5 deblock=1:0:0 analyse=0x3:0x113 me=hex subme=8 psy=1 psy_rd=1.00:0.00 mixed_ref=1 me_range=16 chroma_me=1 trellis=2 8x8dct=1 cqm=0 deadzone=21,11 fast_pskip=1 chroma_qp_offset=-2 threads=18 lookahead_threads=3 sliced_threads=0 nr=0 decimate=1 interlaced=0 bluray_compat=0 constrained_intra=0 bframes=3 b_pyramid=2 b_adapt=1 b_bias=0 direct=3 weightb=1 open_gop=0 weightp=2 keyint=250 keyint_min=25 scenecut=40 intra_refresh=0 rc_lookahead=50 rc=cbr mbtree=1 bitrate=2500 ratetol=1.0 qcomp=0.60 qpmin=0 qpmax=69 qpstep=4 vbv_maxrate=2500 vbv_bufsize=2500 nal_hrd=none filler=0 ip_ratio=1.40 aq=1:1.00\nOutput #0, mp4, to 'C:\\Users\\Peter\\Desktop\\stuff\\MIUN\\quantitative_research\\video_compression\\compressed_videos\\BVI-HD\\h264\\2.5\\Fountain_1920x1080_50fps_h264.mp4':\n  Metadata:\n    major_brand     : isom\n    minor_version   : 512\n    compatible_brands: isomiso2avc1mp41\n    encoder         : Lavf62.3.100\n  Stream #0:0(und): Video: h264 (avc1 / 0x31637661), yuv420p(tv, progressive), 1920x1080, q=2-31, 2500 kb/s, 50 fps, 12800 tbn (default)\n    Metadata:\n      encoder         : Lavc62.11.100 libx264\n      handler_name    : VideoHandler\n      vendor_id       : [0][0][0][0]\n    Side data:\n      cpb: bitrate max/min/avg: 2500000/0/2500000 buffer size: 2500000 vbv_delay: N/A\nframe=    0 fps=0.0 q=0.0 size=       0KiB time=N/A bitrate=N/A speed=N/A elapsed=0:00:01.19    \nframe=    0 fps=0.0 q=0.0 size=       0KiB time=N/A bitrate=N/A speed=N/A elapsed=0:00:01.78    \nframe=    0 fps=0.0 q=0.0 size=       0KiB time=N/A bitrate=N/A speed=N/A elapsed=0:00:02.36    \nframe=    0 fps=0.0 q=0.0 size=       0KiB time=N/A bitrate=N/A speed=N/A elapsed=0:00:02.90    \nframe=   20 fps=5.7 q=41.0 size=       0KiB time=00:00:00.36 bitrate=   1.1kbits/s speed=0.103x elapsed=0:00:03.48    \nframe=   44 fps= 11 q=41.0 size=       0KiB time=00:00:00.76 bitrate=   0.5kbits/s speed=0.188x elapsed=0:00:04.04    \nframe=   61 fps= 13 q=41.0 size=       0KiB time=00:00:01.18 bitrate=   0.3kbits/s speed=0.253x elapsed=0:00:04.66    \nframe=   82 fps= 15 q=41.0 size=     256KiB time=00:00:01.60 bitrate=1311.0kbits/s speed= 0.3x elapsed=0:00:05.33    \nframe=  103 fps= 17 q=41.0 size=     256KiB time=00:00:01.96 bitrate=1070.2kbits/s speed=0.33x elapsed=0:00:05.93    \nframe=  124 fps= 19 q=41.0 size=     512KiB time=00:00:02.36 bitrate=1777.4kbits/s speed=0.359x elapsed=0:00:06.57    \nframe=  133 fps= 18 q=41.0 size=     512KiB time=00:00:02.62 bitrate=1601.0kbits/s speed=0.362x elapsed=0:00:07.23    \nframe=  139 fps= 18 q=42.0 size=     512KiB time=00:00:02.66 bitrate=1577.0kbits/s speed=0.338x elapsed=0:00:07.86    \nframe=  160 fps= 19 q=42.0 size=     512KiB time=00:00:03.16 bitrate=1327.4kbits/s speed=0.376x elapsed=0:00:08.40    \nframe=  189 fps= 21 q=41.0 size=     768KiB time=00:00:03.66 bitrate=1719.1kbits/s speed=0.409x elapsed=0:00:08.94    \nframe=  215 fps= 23 q=41.0 size=     768KiB time=00:00:04.20 bitrate=1498.1kbits/s speed=0.442x elapsed=0:00:09.51    \nframe=  238 fps= 24 q=-1.0 size=    1024KiB time=00:00:04.72 bitrate=1777.3kbits/s speed=0.469x elapsed=0:00:10.05    \n[mp4 @ 000001c181927a80] Starting second pass: moving the moov atom to the beginning of the file\n[out#0/mp4 @ 000001c181927980] video:1278KiB audio:0KiB subtitle:0KiB other streams:0KiB global headers:0KiB muxing overhead: 0.295165%\nframe=  250 fps= 25 q=-1.0 Lsize=    1282KiB time=00:00:04.96 bitrate=2117.1kbits/s speed=0.487x elapsed=0:00:10.19    \n[libx264 @ 000001c182410840] frame I:2     Avg QP:40.09  size: 23124\n[libx264 @ 000001c182410840] frame P:64    Avg QP:41.07  size:  8599\n[libx264 @ 000001c182410840] frame B:184   Avg QP:43.51  size:  3866\n[libx264 @ 000001c182410840] consecutive B-frames:  1.6%  0.8%  0.0% 97.6%\n[libx264 @ 000001c182410840] mb I  I16..4: 75.8% 22.0%  2.3%\n[libx264 @ 000001c182410840] mb P  I16..4:  5.6%  1.2%  0.0%  P16..4: 34.4%  1.6%  3.7%  0.0%  0.0%    skip:53.5%\n[libx264 @ 000001c182410840] mb B  I16..4:  0.2%  0.1%  0.0%  B16..8: 42.2%  0.4%  0.0%  direct: 0.4%  skip:56.6%  L0:45.6% L1:54.2% BI: 0.2%\n[libx264 @ 000001c182410840] 8x8 transform intra:19.4% inter:64.8%\n[libx264 @ 000001c182410840] direct mvs  spatial:94.6% temporal:5.4%\n[libx264 @ 000001c182410840] coded y,uvDC,uvAC intra: 11.3% 17.2% 1.9% inter: 2.5% 4.0% 0.0%\n[libx264 @ 000001c182410840] i16 v,h,dc,p: 37% 25%  4% 34%\n[libx264 @ 000001c182410840] i8 v,h,dc,ddl,ddr,vr,hd,vl,hu:  7%  2% 18% 11% 15% 14% 12% 10% 11%\n[libx264 @ 000001c182410840] i4 v,h,dc,ddl,ddr,vr,hd,vl,hu:  9%  4%  7% 15% 15% 13% 12% 11% 14%\n[libx264 @ 000001c182410840] i8c dc,h,v,p: 67% 25%  5%  3%\n[libx264 @ 000001c182410840] Weighted P-Frames: Y:0.0% UV:0.0%\n[libx264 @ 000001c182410840] ref P L0: 43.5%  7.8% 24.8% 11.4% 12.3%  0.1%\n[libx264 @ 000001c182410840] ref B L0: 68.1% 20.1%  9.4%  2.4%\n[libx264 @ 000001c182410840] ref B L1: 89.8% 10.2%\n[libx264 @ 000001c182410840] kb/s:2092.80\n",
  "seconds": 10.479395151138306,
  "probe_out": {}
}